<svg xmlns="http://www.w3.org/2000/svg" viewBox="0 0 175.83 332.53">
  <defs>
    <style>
      .a68b9eea-cd65-435d-8c0b-d4455bc8666f {
        isolation: isolate;
      }

      .e195caad-cf8e-4b3a-a27a-7eb6a815cddf {
        fill: #161616;
      }

      .b9d3ae52-cc8a-464b-a26d-cf38e86d41f8, .e602f31e-f7aa-4ea9-843d-212009905e7a, .f0e24176-471f-4575-b7bb-cf05d88f46ef {
        fill: #111;
      }

      .f0e24176-471f-4575-b7bb-cf05d88f46ef {
        opacity: 0.6;
      }

      .b9d3ae52-cc8a-464b-a26d-cf38e86d41f8, .f0e24176-471f-4575-b7bb-cf05d88f46ef {
        mix-blend-mode: multiply;
      }

      .b9d3ae52-cc8a-464b-a26d-cf38e86d41f8 {
        opacity: 0.5;
      }
    </style>
  </defs>
  <g class="a68b9eea-cd65-435d-8c0b-d4455bc8666f">
    <g id="b9ff4b53-0e9e-4d8a-94b5-cdee1a01645f" data-name="OBJECTS">
      <path d="M89.54,332.53c11.34-51.65,13.64-102.25,10.29-118.21-9.87-5-17.65-13.49-37.8-25C40.18,176.87,34.11,174,33.48,169.19s-6.72-10.08-12.18-10.08-16.37,3.57-18.26,0,9.23-19.53,25.82-20.58,16,20.16,23.31,12.39,4-39.16-1.37-49.55-.94-15.12-7.24-24.25S37.26,68.3,31.9,62.63,4.61,44.05,4.93,36.49s10.7-5,21.41,0,20.58,12.29,26.88,12.6,7,18.58,14,31.18,6.3,12.6,11,10.39,6-33.07,5.67-39S74.44,37,68.12,30.51C62,24.24,48.88,2.75,55.49.23S78.51,16.34,86.07,22s14.49,15.74,14.49,22.36-1.47,37.26,1.57,38.73,10.08-19.84,10.08-28.34S101.94,38.37,92.27,39c-3.58.21-20.66,13.5-22.89,8.56C66.69,41.55,77,28,86.73,24.81s22-.94,25.48,0c7.25,2.84,12,16.69,19.53,20.47s-12.91,40.63-1.58,43.15S144,71.14,145.6,66.73s-13.55-28-13.23-31.18,6-7.24,15.43,3.15,10.07,23,13.23,27.4-3.16,17-1.89,21.1-13.65,17.22-9.56,37.05,4,51,8.4,63.41c5.57,15.85,8.4,96.58,17.85,144.87Z"/>
      <path class="e195caad-cf8e-4b3a-a27a-7eb6a815cddf" d="M86.71,332.53C98.05,280.88,100.35,230.28,97,214.32c-9.87-5-17.65-13.49-37.79-25C37.36,176.87,31.28,174,30.65,169.19s-6.71-10.08-12.18-10.08-16.37,3.57-18.26,0S9.44,139.58,26,138.53s16,20.16,23.31,12.39,4-39.16-1.37-49.55S47,86.25,40.73,77.12s-6.3-8.82-11.65-14.49S1.78,44.05,2.1,36.49s10.7-5,21.41,0,20.58,12.29,26.88,12.6,7,18.58,14,31.18,6.3,12.6,11,10.39,6-33.07,5.67-39S71.61,37,65.29,30.51C59.15,24.24,46.05,2.75,52.66.23S75.69,16.34,83.24,22,97.73,37.75,97.73,44.37,96.26,81.63,99.3,83.1s10.08-19.84,10.08-28.34S99.11,38.37,89.44,39c-3.58.21-20.66,13.5-22.88,8.56-2.7-6,7.58-19.56,17.34-22.71s22-.94,25.48,0c7.24,2.84,12,16.69,19.53,20.47S116,85.94,127.33,88.46s13.86-17.32,15.44-21.73-13.55-28-13.23-31.18,6-7.24,15.43,3.15,10.08,23,13.23,27.4-3.15,17-1.89,21.1-13.65,17.22-9.56,37.05,4.05,51,8.4,63.41c5.57,15.85,8.4,96.58,17.85,144.87Z"/>
      <path class="e602f31e-f7aa-4ea9-843d-212009905e7a" d="M70.24,35.55c-1.7-1.77-3.41-3.47-4.95-5C59.15,24.24,46.05,2.75,52.66.23S75.69,16.34,83.24,22c.91.68,1.82,1.43,2.7,2.23q-1,.26-2,.57C78.86,26.44,73.7,30.84,70.24,35.55Z"/>
      <path class="e602f31e-f7aa-4ea9-843d-212009905e7a" d="M66.56,47.52c-1.31-2.89.44-7.56,3.68-12a75.52,75.52,0,0,1,7.9,9.26C72.92,47.71,67.71,50.09,66.56,47.52Z"/>
      <path class="f0e24176-471f-4575-b7bb-cf05d88f46ef" d="M160.26,222.63c3.16,32.15,6.51,78.07,12.74,109.9H86.71c2.25-10.25,4.14-20.46,5.71-30.37C128.25,295.79,153,260,160.26,222.63Z"/>
      <path class="e602f31e-f7aa-4ea9-843d-212009905e7a" d="M96.9,40.09A18.71,18.71,0,0,0,89.44,39c-1.71.1-6.51,3.19-11.3,5.85a75.52,75.52,0,0,0-7.9-9.26c3.46-4.71,8.62-9.11,13.66-10.74q1-.31,2-.57C90.93,28.76,95.21,34.85,96.9,40.09Z"/>
      <path class="e602f31e-f7aa-4ea9-843d-212009905e7a" d="M97,40.11A18.84,18.84,0,0,0,89.44,39c-1.71.1-6.51,3.19-11.3,5.85a75.52,75.52,0,0,0-7.9-9.26c3.46-4.71,8.62-9.11,13.66-10.74.67-.22,1.35-.4,2-.57C90.93,28.76,95.27,34.87,97,40.11Z"/>
      <path class="e602f31e-f7aa-4ea9-843d-212009905e7a" d="M66.56,47.52c-1.31-2.89.44-7.56,3.68-12a75.52,75.52,0,0,1,7.9,9.26C72.92,47.71,67.71,50.09,66.56,47.52Z"/>
      <path class="b9d3ae52-cc8a-464b-a26d-cf38e86d41f8" d="M7,41.43c39.58,21.11,52.34,59.65,48.21,110.09-.4,4.92-6.69,7.1-11,4.64-13.2-7.58-24.31-17.09-37.49-8.84C11.41,143,18.08,139,26,138.53c16.59-1.05,16,20.16,23.31,12.39s4-39.16-1.37-49.55S47,86.25,40.73,77.12s-6.3-8.82-11.65-14.49S1.78,44.05,2.1,36.49A6.2,6.2,0,0,1,2.34,35,10.64,10.64,0,0,0,7,41.43Z"/>
      <path class="e602f31e-f7aa-4ea9-843d-212009905e7a" d="M66.56,47.52c-1.21-2.66.17-6.82,2.92-10.9,2.63,3,5.71,5.86,8,8.53C72.51,47.89,67.67,50,66.56,47.52Z"/>
      <path class="e602f31e-f7aa-4ea9-843d-212009905e7a" d="M97,40.11A18.84,18.84,0,0,0,89.44,39c-1.79.11-6.93,3.47-11.92,6.19-2.33-2.67-5.41-5.5-8-8.53,3.43-5.09,9-10.06,14.42-11.81.67-.22,1.35-.4,2-.57C90.93,28.76,95.27,34.87,97,40.11Z"/>
      <path class="b9d3ae52-cc8a-464b-a26d-cf38e86d41f8" d="M143.81,75.2c-5.66,8.49-2.21,13.88-15.2,15.74-1.33-1.32-1.93-1.24-2.3-2.85a4.9,4.9,0,0,0,1,.37c11.34,2.52,13.86-17.33,15.44-21.73s-13.55-28-13.23-31.18A3.76,3.76,0,0,1,131.05,33C138,47.54,148.82,60.18,143.81,75.2Z"/>
      <path class="b9d3ae52-cc8a-464b-a26d-cf38e86d41f8" d="M97,214.32c12.36,6.29,25.57,0,25.57,0s-9.67,8.17-20,8.17l-4.21,18.87Z"/>
      <path class="b9d3ae52-cc8a-464b-a26d-cf38e86d41f8" d="M59.38,156.19c7.08,2.83,29.18-4.42,41,13.43C91.38,148.41,59.38,156.19,59.38,156.19Z"/>
      <path class="b9d3ae52-cc8a-464b-a26d-cf38e86d41f8" d="M142.87,65.63c3.69,2.32,8.72,1,8.72,1s-.88,2.12-9,.88Z"/>
      <path class="b9d3ae52-cc8a-464b-a26d-cf38e86d41f8" d="M27,59c11.62,1.12,15.15-8.55,15.15-8.55S39.63,61.54,29.37,62Z"/>
      <path class="b9d3ae52-cc8a-464b-a26d-cf38e86d41f8" d="M109.63,49.47c8.37,5.24,14.71-.73,14.71-.73s-6.1,7.4-14,3.86Z"/>
      <path class="b9d3ae52-cc8a-464b-a26d-cf38e86d41f8" d="M98,40.61c8.71-4.66,6.67-13.13,6.67-13.13s3.4,9-3.62,14.09Z"/>
      <path class="b9d3ae52-cc8a-464b-a26d-cf38e86d41f8" d="M81.92,48.75c8.34,5.3,14.71-.64,14.71-.64s-6.14,7.37-14,3.77Z"/>
      <path class="b9d3ae52-cc8a-464b-a26d-cf38e86d41f8" d="M42.16,79.86C53.78,81,57.32,71.32,57.32,71.32S54.79,82.37,44.53,82.81Z"/>
      <path class="b9d3ae52-cc8a-464b-a26d-cf38e86d41f8" d="M76.43,89.22a6.49,6.49,0,0,1-.88,1.23C75.73,90.22,76,89.82,76.43,89.22Z"/>
      <path class="b9d3ae52-cc8a-464b-a26d-cf38e86d41f8" d="M75.55,90.45a2.36,2.36,0,0,1-.18.21C75.43,90.61,75.49,90.51,75.55,90.45Z"/>
      <path class="b9d3ae52-cc8a-464b-a26d-cf38e86d41f8" d="M82,42.08c2.07,6.55,2.19,16.73,1.27,26.23-1.07,11.19-4.9,18.11-6.79,20.91,4-7,4.81-30.37,4.65-36.11-.13-4.49-1.64-5.82-2.94-8.3A8.29,8.29,0,0,0,82,42.08Z"/>
      <path class="e602f31e-f7aa-4ea9-843d-212009905e7a" d="M51.31,1.39A21.71,21.71,0,0,0,53.55,11c2.11,4.37,11,15,19.23,21.46a18.77,18.77,0,0,0-2.54,3.07c-.64-.6-2.27-2.41-3-3C56.92,23.24,49.74,6.25,51.31,1.39Z"/>
      <path class="e602f31e-f7aa-4ea9-843d-212009905e7a" d="M99.3,83.1c8.71-6,11-14.79,12.42-23.63S109,43,105.51,40s-15.18-5.93-20-4.47-12.71,13.45-19,12c0,0,.43,4.52,9.27-1.31s11.81-8.89,17.59-7,13.7,6.1,15.56,12.66S106.34,76.86,99.3,83.1Z"/>
    </g>
  </g>
</svg>
