<svg xmlns="http://www.w3.org/2000/svg" viewBox="0 0 140.26 215.9">
  <g id="be791e91-2c0f-4b47-827c-bd55027f2320" data-name="Objects">
    <g>
      <g>
        <g>
          <path d="M40.81,154.11c-2.9-1.4-4.64,4.18-4.72,6a8.88,8.88,0,0,0,2.48,6.53c.77.79,1.9,1.47,2.92,1.08,1.42-.55,1.46-2.5,1.25-4C42.49,161.87,42.6,155,40.81,154.11Z"/>
          <path d="M55.13,153.82A2.67,2.67,0,0,0,57.3,156a2.3,2.3,0,0,0,2.3-2A3.16,3.16,0,0,0,58.17,151a5.2,5.2,0,0,0-3.23-.76l.33.31A7.84,7.84,0,0,0,55.13,153.82Z"/>
          <path d="M49.08,141.07a12.5,12.5,0,0,0,.35-5.28l-.08.82A11.74,11.74,0,0,0,47,134.33a3.85,3.85,0,0,0-3.16-.59c-1.64.5-2.49,2.33-2.72,4a6.93,6.93,0,0,0,.61,4.24,4.11,4.11,0,0,0,3.51,2.23A4.54,4.54,0,0,0,49.08,141.07Z"/>
          <path d="M51.34,179.28a5.56,5.56,0,0,0-2.53,1.17,2.26,2.26,0,0,0-.65,2.55c1,1.94,4.36.75,5.76,2.39.92,1.07.63,3,1.88,3.69a2,2,0,0,0,2-.3,5.7,5.7,0,0,0,1.34-1.66,11,11,0,0,0,2-4.68C61.68,176.88,54.66,178.45,51.34,179.28Z"/>
        </g>
        <g>
          <path d="M132.45,139.61c2.9-1.4,4.64,4.18,4.72,6a8.88,8.88,0,0,1-2.48,6.53c-.77.79-1.89,1.47-2.92,1.08-1.42-.55-1.46-2.5-1.25-4C130.77,147.37,130.66,140.47,132.45,139.61Z"/>
          <path d="M117.13,146.82A2.67,2.67,0,0,1,115,149a2.31,2.31,0,0,1-2.3-2,3.16,3.16,0,0,1,1.43-2.88,5.21,5.21,0,0,1,3.24-.76l-.34.31A7.84,7.84,0,0,1,117.13,146.82Z"/>
          <path d="M124.18,120.57a12.67,12.67,0,0,1-.35-5.28l.08.82a11.74,11.74,0,0,1,2.39-2.28,3.85,3.85,0,0,1,3.16-.59c1.64.5,2.49,2.33,2.72,4a6.93,6.93,0,0,1-.61,4.24,4.11,4.11,0,0,1-3.51,2.23A4.54,4.54,0,0,1,124.18,120.57Z"/>
          <path d="M126.18,187.24a12.68,12.68,0,0,1-.35-5.28l.08.82a11.22,11.22,0,0,1,2.39-2.28,3.89,3.89,0,0,1,3.16-.6c1.64.51,2.49,2.34,2.72,4a6.93,6.93,0,0,1-.61,4.24,4.11,4.11,0,0,1-3.51,2.23A4.55,4.55,0,0,1,126.18,187.24Z"/>
          <path d="M123.42,162.28a5.65,5.65,0,0,1,2.54,1.17,2.27,2.27,0,0,1,.64,2.55c-.95,1.94-4.36.75-5.76,2.39-.92,1.07-.63,3-1.88,3.69a2,2,0,0,1-2-.3,5.86,5.86,0,0,1-1.34-1.66,11,11,0,0,1-2-4.68C113.08,159.88,120.1,161.45,123.42,162.28Z"/>
        </g>
      </g>
      <path d="M58.35,134.15a179.53,179.53,0,0,1,12.51,38.71A220.17,220.17,0,0,1,69.29,198c-.76,6.3-1.77,12.26-2.92,17.87H109c-1.53-9.32-2.77-19.38-3.49-30.12a316.85,316.85,0,0,1,.83-52.83C116.54,116.62,121,85.28,121,85.28l.66-.16S131.37,67.78,136,61s5.5-12.17,2.33-13.17-9.83,8.5-14.83,14S111,72.45,109.79,71c-4.14-4.68,12.25-28.58,10.75-39.41-.42-3-3.75-10.09-7.5-13.34-7.72-6.69-9,7.5-5.25,12.5.75,6.5-5,19.75-7.5,24.75S91.54,61.28,89,55.28s3-31,3.75-37.5S97.29-.72,87.54,0s-11,41.25-11.25,44.5S75,53.53,71,51s-9.25-33.25-9-39S60-1.47,53.79,1s-1.75,25.25-1,34.25a69.93,69.93,0,0,0,1.62,9.15h-.07a56.12,56.12,0,0,1-1.28,15.23A32.14,32.14,0,0,1,47,72.61a19.9,19.9,0,0,1-10.76,7.18,17.24,17.24,0,0,1-7.6.13c-4.81-3.35-9.32-6.42-11.82-7.39C10.29,70-.71,72.28,0,77.28S24.29,84.78,40.79,112C47.72,123.48,53.72,130.2,58.35,134.15Zm10.19,5.63c.82,5.65,1.53,12,1.94,19a184.06,184.06,0,0,0-6-20.4A11.38,11.38,0,0,0,68.54,139.78ZM36.79,83.49a18,18,0,0,0,7-2.85,25.85,25.85,0,0,0,5.69-5.42,32,32,0,0,0,4-7,37.64,37.64,0,0,0,2.21-7.86,44.08,44.08,0,0,0,.54-8c.85,3.6,1.69,7.3,2.3,10.91A31.68,31.68,0,0,1,57.78,67a24.92,24.92,0,0,1-5.68,10.6,19,19,0,0,1-10,5.88,18.33,18.33,0,0,1-6.81.14C35.77,83.62,36.28,83.57,36.79,83.49Zm10.25,7c-1.32.44-4.62-1.33-8.64-3.92a17.45,17.45,0,0,0,4.21-.08,18.14,18.14,0,0,0,6.57-2.33,23.35,23.35,0,0,0,5.3-4.44,24.75,24.75,0,0,0,5-9c0,.5.06,1,.07,1.5A18.45,18.45,0,0,1,47,90.53Z"/>
    </g>
  </g>
</svg>
